<?xml version="1.0" standalone="no"?>
<!DOCTYPE svg PUBLIC "-//W3C//DTD SVG 20010904//EN"
 "http://www.w3.org/TR/2001/REC-SVG-20010904/DTD/svg10.dtd">
<svg version="1.0" xmlns="http://www.w3.org/2000/svg"
 width="600.000000pt" height="600.000000pt" viewBox="0 0 600.000000 600.000000"
 preserveAspectRatio="xMidYMid meet">
<metadata>
Created by potrace 1.11, written by Peter Selinger 2001-2013
</metadata>
<g transform="translate(0.000000,600.000000) scale(0.100000,-0.100000)"
fill="#000000" stroke="none">
<path d="M4344 4409 c-26 -29 -173 -126 -256 -169 -51 -26 -68 -40 -68 -56 0
-30 6 -32 54 -22 27 6 52 5 69 -1 47 -18 52 -59 52 -458 0 -199 -3 -364 -7
-368 -3 -4 -50 5 -103 19 -53 14 -114 26 -134 26 -80 0 -243 -73 -344 -154
-78 -63 -180 -225 -212 -336 -39 -132 -43 -338 -11 -460 57 -206 220 -360 384
-360 85 0 185 37 299 110 52 33 97 60 98 58 2 -2 8 -53 13 -114 12 -128 23
-158 55 -148 32 10 225 92 275 117 36 19 42 26 42 54 l0 32 -53 -24 c-29 -14
-67 -28 -84 -31 -28 -5 -31 -3 -42 28 -25 70 -33 312 -27 803 7 522 19 882 38
1190 17 258 16 279 -3 283 -8 1 -24 -7 -35 -19z m-361 -1185 c97 -25 170 -63
188 -97 9 -16 11 -120 6 -407 l-6 -385 -33 -28 c-115 -97 -259 -118 -385 -55
-91 45 -174 168 -213 313 -27 103 -37 273 -21 357 26 131 103 248 195 295 90
47 117 47 269 7z"/>
<path d="M262 4128 c-29 -106 -52 -199 -52 -206 0 -8 9 -12 21 -10 14 2 27 20
44 62 30 74 56 102 125 135 55 26 57 26 297 26 153 0 246 -4 252 -10 30 -30
35 -174 34 -875 -2 -772 -10 -1024 -37 -1065 -20 -30 -69 -56 -161 -84 -89
-27 -95 -31 -84 -58 10 -29 23 -29 186 -2 107 18 153 20 278 15 83 -3 181 -9
218 -12 l69 -7 -4 29 c-3 31 -8 33 -122 55 -42 8 -68 19 -87 39 -54 53 -54 54
-54 845 1 785 9 1093 30 1122 11 14 33 18 136 21 172 6 320 -11 394 -43 32
-15 64 -33 69 -41 7 -9 9 -44 6 -89 -4 -66 -3 -75 12 -75 29 0 45 27 53 85 3
31 18 101 31 156 28 116 28 118 9 143 -15 19 -15 19 -41 -5 l-26 -24 -671 -3
c-724 -4 -783 -1 -836 44 -16 13 -31 24 -33 24 -2 0 -28 -87 -56 -192z"/>
<path d="M2555 3373 c-220 -53 -363 -195 -437 -433 -20 -67 -23 -94 -22 -245
0 -156 2 -176 27 -251 53 -159 153 -276 296 -347 l84 -42 121 0 c118 0 123 1
191 34 195 95 320 321 332 597 7 155 -12 255 -72 379 -72 150 -173 244 -309
290 -71 24 -156 31 -211 18z m130 -107 c99 -46 191 -175 245 -341 29 -88 33
-117 38 -241 4 -120 1 -152 -17 -223 -39 -158 -92 -243 -183 -298 -120 -73
-232 -45 -337 82 -100 121 -170 351 -171 558 0 217 100 427 226 472 61 22 141
18 199 -9z"/>
<path d="M5080 3357 c-41 -13 -97 -36 -125 -52 -194 -115 -310 -375 -291 -654
17 -268 123 -450 320 -550 82 -42 145 -54 251 -49 79 4 103 10 151 35 155 81
261 224 315 428 30 112 31 308 1 416 -58 213 -182 360 -355 421 -96 34 -164
35 -267 5z m175 -91 c132 -62 242 -242 280 -463 40 -228 -15 -474 -132 -591
-66 -66 -113 -87 -189 -86 -124 2 -230 102 -305 290 -93 231 -96 522 -8 697
78 154 220 216 354 153z"/>
</g>
</svg>
